<svg xmlns="http://www.w3.org/2000/svg" xml:space="preserve" viewBox="0 0 512 512" id="ICapitalLetter">
  <path d="M506.81 148.08C499.5 72.36 440.34 12.5 365.68 5.29c-72.95-7.05-146.41-7.05-219.36 0C71.66 12.5 12.5 72.36 5.19 148.08c-6.92 71.78-6.92 144.06 0 215.83 7.3 75.72 66.46 135.58 141.12 142.8 72.95 7.05 146.41 7.05 219.36 0 74.66-7.21 133.82-67.07 141.12-142.8 6.94-71.77 6.94-144.05.02-215.83M305.44 368.5c15.19 0 27.5 12.31 27.5 27.5s-12.31 27.5-27.5 27.5h-98.88c-15.19 0-27.5-12.31-27.5-27.5s12.31-27.5 27.5-27.5h21.94v-225h-21.94c-15.19 0-27.5-12.31-27.5-27.5s12.31-27.5 27.5-27.5h98.88c15.19 0 27.5 12.31 27.5 27.5s-12.31 27.5-27.5 27.5H283.5v225z" fill="#dc5f00" class="color000000 svgShape"></path>
</svg>
